<?xml version="1.0" encoding="UTF-8"?>
<svg id="Calque_1" data-name="Calque 1" xmlns="http://www.w3.org/2000/svg" viewBox="0 0 240.9 78.01">
  <g>
    <path d="M3.86,29.26c0-1.72,1.36-3.08,3.08-3.08h.64c1.48,0,2.36.72,3.2,1.8l11.88,15.6v-14.44c0-1.68,1.36-3.04,3.04-3.04s3.04,1.36,3.04,3.04v22.28c0,1.72-1.36,3.08-3.08,3.08h-.2c-1.48,0-2.36-.72-3.2-1.8l-12.32-16.16v15c0,1.68-1.36,3.04-3.04,3.04s-3.04-1.36-3.04-3.04v-22.28Z" fill="#1d1d1b" stroke="#1d1d1b" stroke-miterlimit="10"/>
    <path d="M44.98,54.81c-6.44,0-11.2-4.52-11.2-11.08v-.08c0-6.12,4.36-11.16,10.6-11.16,7.16,0,10.32,5.88,10.32,10.32,0,1.76-1.24,2.92-2.84,2.92h-12.04c.6,2.76,2.52,4.2,5.24,4.2,1.68,0,3.08-.52,4.32-1.44.44-.32.84-.48,1.48-.48,1.36,0,2.36,1.04,2.36,2.4,0,.8-.36,1.4-.8,1.8-1.88,1.6-4.32,2.6-7.44,2.6ZM48.9,41.93c-.36-2.72-1.96-4.56-4.52-4.56s-4.16,1.8-4.64,4.56h9.16Z" fill="#1d1d1b" stroke="#1d1d1b" stroke-miterlimit="10"/>
    <path d="M60.34,48.25v-10.16h-.2c-1.44,0-2.6-1.16-2.6-2.6s1.16-2.6,2.6-2.6h.2v-2.68c0-1.68,1.36-3.04,3.04-3.04s3.04,1.36,3.04,3.04v2.68h2.68c1.44,0,2.6,1.16,2.6,2.6s-1.16,2.6-2.6,2.6h-2.68v9.16c0,1.4.6,2.08,1.96,2.08.2,0,.6-.04.72-.04,1.36,0,2.52,1.12,2.52,2.52,0,1.08-.72,1.96-1.56,2.28-1.12.44-2.16.6-3.48.6-3.72,0-6.24-1.48-6.24-6.44Z" fill="#1d1d1b" stroke="#1d1d1b" stroke-miterlimit="10"/>
    <path d="M77.38,27.26c0-.56.48-1.04,1.04-1.04h.2c.44,0,.76.24,1.04.6l10.92,16.08,10.92-16.08c.24-.36.6-.6,1.04-.6h.2c.56,0,1.04.48,1.04,1.04v26.2c0,.56-.48,1.04-1.04,1.04s-1.04-.48-1.04-1.04v-23.44l-10.28,14.96c-.24.36-.52.52-.88.52s-.64-.16-.88-.52l-10.28-14.96v23.48c0,.56-.44,1-1,1s-1-.44-1-1v-26.24Z" fill="#1d1d1b" stroke="#1d1d1b" stroke-miterlimit="10"/>
    <path d="M110.26,44.21v-.08c0-5.72,4.44-10.68,10.52-10.68s10.44,4.88,10.44,10.6v.08c0,5.72-4.44,10.68-10.52,10.68s-10.44-4.88-10.44-10.6ZM129.1,44.21v-.08c0-4.92-3.68-8.84-8.4-8.84s-8.32,3.96-8.32,8.76v.08c0,4.92,3.68,8.84,8.4,8.84s8.32-3.96,8.32-8.76Z" fill="#1d1d1b" stroke="#1d1d1b" stroke-miterlimit="10"/>
    <path d="M137.26,25.98c0-.6.4-1,.96-1s1,.4,1,1v12.52c1.76-2.68,4.36-5.04,8.4-5.04,4.92,0,9.92,3.96,9.92,10.6v.08c0,6.64-5,10.68-9.92,10.68-4.08,0-6.72-2.32-8.4-4.88v3.56c0,.56-.4,1-.96,1s-1-.44-1-1v-27.52ZM155.42,44.21v-.08c0-5.36-3.72-8.8-8-8.8s-8.32,3.56-8.32,8.76v.08c0,5.24,4.08,8.76,8.32,8.76s8-3.24,8-8.72Z" fill="#1d1d1b" stroke="#1d1d1b" stroke-miterlimit="10"/>
  </g>
  <line x1="110.84" y1="4.64" x2="104.33" y2="73.21" fill="#1d1d1b" stroke="#1d1d1b" stroke-miterlimit="10" stroke-width="2"/>
  <line x1="129.08" y1="15.97" x2="110.82" y2="4.91" fill="#1d1d1b" stroke="#1d1d1b" stroke-miterlimit="10" stroke-width="2"/>
  <line x1="152.9" y1="11.83" x2="129.08" y2="15.97" fill="#1d1d1b" stroke="#1d1d1b" stroke-miterlimit="10" stroke-width="2"/>
  <line x1="66.59" y1="66.82" x2="104.33" y2="73.21" fill="#1d1d1b" stroke="#1d1d1b" stroke-miterlimit="10" stroke-width="2"/>
  <line x1="131.47" y1="66.82" x2="104.33" y2="73.37" fill="#1d1d1b" stroke="#1d1d1b" stroke-miterlimit="10" stroke-width="2"/>
  <line x1="110.84" y1="4.64" x2="118.36" y2="34.42" fill="#1d1d1b" stroke="#1d1d1b" stroke-miterlimit="10" stroke-width="2"/>
  <line x1="128.9" y1="15.97" x2="122.4" y2="34.14" fill="#1d1d1b" stroke="#1d1d1b" stroke-miterlimit="10" stroke-width="2"/>
  <circle cx="129.08" cy="15.97" r="4.14" fill="#1d1d1b" stroke="#1d1d1b" stroke-miterlimit="10"/>
  <circle cx="153.01" cy="11.83" r="4.14" fill="#1d1d1b" stroke-width="0"/>
  <circle cx="110.84" cy="4.64" r="4.14" fill="#1d1d1b" stroke="#1d1d1b" stroke-miterlimit="10"/>
  <circle cx="66.75" cy="66.82" r="4.14" fill="#1d1d1b" stroke-width="0"/>
  <line x1="131.47" y1="66.82" x2="124.85" y2="52.77" fill="#1d1d1b" stroke="#1d1d1b" stroke-miterlimit="10" stroke-width="2"/>
  <line x1="104.33" y1="73.37" x2="116.47" y2="53.05" fill="#1d1d1b" stroke="#1d1d1b" stroke-miterlimit="10" stroke-width="2"/>
  <circle cx="131.47" cy="66.82" r="4.14" fill="#1d1d1b" stroke="#1d1d1b" stroke-miterlimit="10"/>
  <circle cx="104.33" cy="73.37" r="4.14" fill="#1d1d1b" stroke="#1d1d1b" stroke-miterlimit="10"/>
  <line x1="168.11" y1="22.12" x2="168.11" y2="61.68" fill="none" stroke="#d61a2b" stroke-miterlimit="10" stroke-width="3"/>
  <rect x="207.02" y="37.76" width="9.04" height="9.04" fill="#fff" stroke-width="0"/>
  <path d="M211.32,36.27c.04.1.15.15.25.11.05-.02.09-.06.11-.11,3.16-7.94,10.41-11.81,18.94-10.45,4.2.67,7.54,2.71,10.04,6.1.06.08.05.14-.03.2l-6.27,4.86c-.08.07-.16.06-.24-.02-.48-.52-.97-1.11-1.43-1.51-4.69-4.07-11.32-1.85-12.74,4.15-2.18,9.27,8.49,15.03,14.33,7.1.07-.09.2-.11.29-.05l6.27,4.46c.05.04.07.11.03.17-2.83,4.08-6.76,6.38-11.77,6.9-7.95.82-14.82-3.35-17.55-10.96-.02-.06-.09-.09-.14-.07-.03.01-.06.04-.07.07-3.06,8.1-10.27,10.4-18.27,10.45-3.56.02-7.11.02-10.62,0-.14,0-.26-.12-.26-.26v-31.04c0-.15.12-.26.26-.26,4.17-.01,8.38-.01,12.62,0,7,.03,13.66,3.29,16.25,10.15ZM190.94,33.96l.03,15.89s.03.07.07.07h4.36c4.34-.02,7.86-3.38,7.85-7.52v-1.03c0-4.14-3.53-7.49-7.88-7.49,0,0,0,0,0,0h-4.36s-.07.04-.07.08ZM212.63,41.28c-.07,0-.13-.04-.15-.11l-.81-2.4c-.03-.09-.12-.13-.2-.11-.05.02-.09.06-.11.11l-.75,2.42c-.02.07-.08.11-.15.11l-2.54.03c-.09,0-.16.07-.16.16,0,.05.03.1.07.13l2.07,1.46c.06.04.08.11.06.18l-.76,2.42c-.03.09.02.18.11.2.05.02.1,0,.14-.02l2.03-1.52c.06-.04.13-.04.19,0l2.07,1.47c.07.05.17.04.23-.04.03-.04.04-.1.02-.15l-.82-2.4c-.02-.07,0-.14.06-.18l2.04-1.51c.07-.05.09-.16.03-.23-.03-.04-.08-.06-.13-.06l-2.54.04h0Z" fill="#d61a2a" stroke-width="0"/>
</svg>